<svg xmlns="http://www.w3.org/2000/svg" viewBox="0 0 1200 630" width="1200" height="630">
  <defs>
    <radialGradient id="halo-tr" cx="80%" cy="0%" r="65%">
      <stop offset="0" stop-color="#5d83ff" stop-opacity="0.22"/>
      <stop offset="1" stop-color="#5d83ff" stop-opacity="0"/>
    </radialGradient>
    <radialGradient id="halo-bl" cx="0%" cy="100%" r="55%">
      <stop offset="0" stop-color="#5d83ff" stop-opacity="0.10"/>
      <stop offset="1" stop-color="#5d83ff" stop-opacity="0"/>
    </radialGradient>
    <pattern id="grid" width="48" height="48" patternUnits="userSpaceOnUse">
      <path d="M 48 0 L 0 0 0 48" fill="none" stroke="#ffffff" stroke-opacity="0.025"/>
    </pattern>
  </defs>

  <rect width="1200" height="630" fill="#08090c"/>
  <rect width="1200" height="630" fill="url(#grid)"/>
  <rect width="1200" height="630" fill="url(#halo-tr)"/>
  <rect width="1200" height="630" fill="url(#halo-bl)"/>

  <!-- Brand mark -->
  <g transform="translate(64,64)">
    <rect x="0" y="0" width="56" height="56" rx="14" fill="#11141b" stroke="#2a3142"/>
    <path d="M16 14 H30.8 c5.6 0 9.2 3.2 9.2 8.4 0 3.7-1.8 6.5-5.1 7.7L42 42 H34.1 l-6.2-10.6h-4.4V42 H16 V14 zm7.5 7v5.2h7c1.8 0 3-1 3-2.6s-1.2-2.6-3-2.6h-7z" fill="#e8eaf0"/>
    <circle cx="42.9" cy="13.1" r="3.1" fill="#5d83ff"/>
  </g>
  <text x="142" y="105" font-family="ui-monospace, SF Mono, Menlo, monospace" font-size="32" font-weight="600" letter-spacing="-0.5" fill="#e8eaf0">reley</text>

  <!-- Headline -->
  <text x="64" y="324" font-family="Inter, system-ui, sans-serif" font-size="72" font-weight="600" letter-spacing="-2" fill="#e8eaf0">
    Lightweight Solana mainnet
  </text>
  <text x="64" y="402" font-family="Inter, system-ui, sans-serif" font-size="72" font-weight="600" letter-spacing="-2" fill="#9ba2b1">
    on your laptop.
  </text>

  <!-- Subhead -->
  <text x="64" y="464" font-family="Inter, system-ui, sans-serif" font-size="24" font-weight="400" fill="#9ba2b1">
    Clone any program. Patch any field. Simulate, replay, publish as a local JSON-RPC.
  </text>

  <!-- Footer strip -->
  <g transform="translate(64,540)">
    <circle cx="6" cy="9" r="5" fill="#5d83ff"/>
    <text x="22" y="14" font-family="ui-monospace, SF Mono, Menlo, monospace" font-size="16" letter-spacing="2" fill="#6c7385">SVM SANDBOX · MACOS FIRST</text>
  </g>
  <text x="1136" y="554" font-family="ui-monospace, SF Mono, Menlo, monospace" font-size="16" letter-spacing="2" fill="#6c7385" text-anchor="end">RELEY.XYZ</text>
</svg>
